<svg width="84" height="84" viewBox="0 0 84 84" fill="none" xmlns="http://www.w3.org/2000/svg">
<circle cx="42" cy="42" r="42" fill="url(#paint0_linear_1_10)"/>
<path d="M43.8375 50.8379H40.5475C38.22 50.8379 36.3125 48.8779 36.3125 46.4629C36.3125 45.7454 36.9075 45.1504 37.625 45.1504C38.3425 45.1504 38.9375 45.7454 38.9375 46.4629C38.9375 47.4254 39.655 48.2129 40.5475 48.2129H43.8375C44.52 48.2129 45.0625 47.6004 45.0625 46.8479C45.0625 45.9029 44.8 45.7629 44.205 45.5529L38.9375 43.7154C37.8175 43.3304 36.3125 42.5079 36.3125 39.9354C36.3125 37.7479 38.045 35.9454 40.1625 35.9454H43.4525C45.78 35.9454 47.6875 37.9054 47.6875 40.3204C47.6875 41.0379 47.0925 41.6329 46.375 41.6329C45.6575 41.6329 45.0625 41.0379 45.0625 40.3204C45.0625 39.3579 44.345 38.5704 43.4525 38.5704H40.1625C39.48 38.5704 38.9375 39.1829 38.9375 39.9354C38.9375 40.8804 39.2 41.0204 39.795 41.2304L45.0625 43.0679C46.1825 43.4529 47.6875 44.2754 47.6875 46.8479C47.6875 49.0529 45.955 50.8379 43.8375 50.8379Z" fill="#00AC4F"/>
<path d="M42 52.5875C41.2825 52.5875 40.6875 51.9925 40.6875 51.275V35.525C40.6875 34.8075 41.2825 34.2125 42 34.2125C42.7175 34.2125 43.3125 34.8075 43.3125 35.525V51.275C43.3125 51.9925 42.7175 52.5875 42 52.5875Z" fill="#00AC4F"/>
<path d="M42 62.2125C31.6225 62.2125 23.1875 53.7775 23.1875 43.4C23.1875 33.0225 31.6225 24.5875 42 24.5875C42.7175 24.5875 43.3125 25.1825 43.3125 25.9C43.3125 26.6175 42.7175 27.2125 42 27.2125C33.075 27.2125 25.8125 34.475 25.8125 43.4C25.8125 52.325 33.075 59.5875 42 59.5875C50.925 59.5875 58.1875 52.325 58.1875 43.4C58.1875 42.6825 58.7825 42.0875 59.5 42.0875C60.2175 42.0875 60.8125 42.6825 60.8125 43.4C60.8125 53.7775 52.3775 62.2125 42 62.2125Z" fill="#00AC4F"/>
<path d="M57.75 35.9625H50.75C50.0325 35.9625 49.4375 35.3675 49.4375 34.65V27.65C49.4375 26.9325 50.0325 26.3375 50.75 26.3375C51.4675 26.3375 52.0625 26.9325 52.0625 27.65V33.3375H57.75C58.4675 33.3375 59.0625 33.9325 59.0625 34.65C59.0625 35.3675 58.4675 35.9625 57.75 35.9625Z" fill="#00AC4F"/>
<path d="M50.749 35.9632C50.4165 35.9632 50.084 35.8407 49.8215 35.5782C49.314 35.0707 49.314 34.2307 49.8215 33.7232L58.5715 24.9732C59.079 24.4657 59.919 24.4657 60.4265 24.9732C60.934 25.4807 60.934 26.3207 60.4265 26.8282L51.6765 35.5782C51.414 35.8407 51.0815 35.9632 50.749 35.9632Z" fill="#00AC4F"/>
<defs>
<linearGradient id="paint0_linear_1_10" x1="74.55" y1="2.14197e-06" x2="42" y2="84" gradientUnits="userSpaceOnUse">
<stop stop-color="#D3FFE7"/>
<stop offset="1" stop-color="#EFFFF6"/>
</linearGradient>
</defs>
</svg>
