<svg width="84" height="84" viewBox="0 0 84 84" fill="none" xmlns="http://www.w3.org/2000/svg">
<circle cx="42" cy="42" r="42" fill="url(#paint0_linear_1_26)"/>
<path d="M33.5471 61.8118C29.3821 61.8118 25.9697 58.7843 25.9697 55.0568V51.4868C25.9697 50.7693 26.5647 50.1743 27.2822 50.1743C27.9997 50.1743 28.5947 50.7693 28.5947 51.4868C28.5947 53.6743 30.7121 55.3193 33.5471 55.3193C36.3821 55.3193 38.4997 53.6743 38.4997 51.4868C38.4997 50.7693 39.0946 50.1743 39.8121 50.1743C40.5296 50.1743 41.1246 50.7693 41.1246 51.4868V55.0568C41.1246 58.7843 37.7296 61.8118 33.5471 61.8118ZM29.0496 56.7718C29.8196 58.2068 31.5521 59.1868 33.5471 59.1868C35.5421 59.1868 37.2747 58.1893 38.0447 56.7718C36.8022 57.5243 35.2621 57.9618 33.5471 57.9618C31.8321 57.9618 30.2921 57.5243 29.0496 56.7718Z" fill="#0F5FC2"/>
<path d="M33.5471 53.149C30.6771 53.149 28.1047 51.8365 26.8272 49.754C26.2672 48.844 25.9697 47.7765 25.9697 46.6915C25.9697 44.854 26.7747 43.139 28.2447 41.8615C31.0797 39.3765 35.9622 39.3766 38.8146 41.8441C40.2846 43.1391 41.1071 44.854 41.1071 46.6915C41.1071 47.7765 40.8096 48.844 40.2496 49.754C38.9896 51.8365 36.4171 53.149 33.5471 53.149ZM33.5471 42.5616C32.1821 42.5616 30.9222 43.0165 29.9772 43.839C29.0847 44.609 28.5947 45.624 28.5947 46.6915C28.5947 47.304 28.7521 47.8641 29.0671 48.3891C29.8721 49.7191 31.5871 50.5416 33.5471 50.5416C35.5071 50.5416 37.2221 49.7191 38.0096 48.4066C38.3246 47.8991 38.4822 47.3216 38.4822 46.7091C38.4822 45.6416 37.9922 44.6265 37.0997 43.839C36.1722 43.0165 34.9121 42.5616 33.5471 42.5616Z" fill="#0F5FC2"/>
<path d="M33.5471 57.9625C29.2246 57.9625 25.9697 55.18 25.9697 51.505V46.6925C25.9697 42.965 29.3646 39.9375 33.5471 39.9375C35.5246 39.9375 37.4147 40.62 38.8321 41.845C40.3021 43.14 41.1246 44.855 41.1246 46.6925V51.505C41.1246 55.18 37.8696 57.9625 33.5471 57.9625ZM33.5471 42.5625C30.8171 42.5625 28.5947 44.4175 28.5947 46.6925V51.505C28.5947 53.6925 30.7121 55.3375 33.5471 55.3375C36.3821 55.3375 38.4997 53.6925 38.4997 51.505V46.6925C38.4997 45.625 38.0097 44.61 37.1172 43.8225C36.1722 43.0175 34.9121 42.5625 33.5471 42.5625Z" fill="#0F5FC2"/>
<path d="M54.3198 47.9003C51.6773 47.9003 49.4373 45.9403 49.2273 43.4203C49.0873 41.9678 49.6123 40.5503 50.6623 39.5178C51.5373 38.6078 52.7798 38.1003 54.0923 38.1003H57.7498C59.4823 38.1528 60.8123 39.5178 60.8123 41.1978V44.8028C60.8123 46.4828 59.4823 47.8478 57.8023 47.9003H54.3198ZM57.6973 40.7253H54.1098C53.4973 40.7253 52.9373 40.9528 52.5348 41.3728C52.0273 41.8628 51.7823 42.5278 51.8523 43.1928C51.9398 44.3478 53.0598 45.2753 54.3198 45.2753H57.7498C57.9773 45.2753 58.1873 45.0653 58.1873 44.8028V41.1978C58.1873 40.9353 57.9773 40.7428 57.6973 40.7253Z" fill="#0F5FC2"/>
<path d="M49.0004 59.1875H44.6254C43.9079 59.1875 43.3129 58.5925 43.3129 57.875C43.3129 57.1575 43.9079 56.5625 44.6254 56.5625H49.0004C53.5154 56.5625 56.4379 53.64 56.4379 49.125V47.9H54.3203C51.6778 47.9 49.4379 45.94 49.2279 43.42C49.0879 41.9675 49.613 40.55 50.663 39.5175C51.538 38.6075 52.7804 38.1 54.0929 38.1H56.4204V36.875C56.4204 32.78 54.023 29.9625 50.138 29.5075C49.718 29.4375 49.3504 29.4375 48.9829 29.4375H33.2329C32.8129 29.4375 32.4104 29.4725 32.0079 29.525C28.1579 30.015 25.7954 32.815 25.7954 36.875V40.375C25.7954 41.0925 25.2004 41.6875 24.4829 41.6875C23.7654 41.6875 23.1704 41.0925 23.1704 40.375V36.875C23.1704 31.485 26.4955 27.5825 31.658 26.935C32.1305 26.865 32.6729 26.8125 33.2329 26.8125H48.9829C49.4029 26.8125 49.9454 26.83 50.5054 26.9175C55.6679 27.5125 59.0454 31.4325 59.0454 36.875V39.4125C59.0454 40.13 58.4504 40.725 57.7329 40.725H54.0929C53.4804 40.725 52.9205 40.9525 52.518 41.3725C52.0105 41.8625 51.7653 42.5275 51.8353 43.1925C51.9228 44.3475 53.043 45.275 54.303 45.275H57.7504C58.4679 45.275 59.0629 45.87 59.0629 46.5875V49.125C59.0629 55.145 55.0204 59.1875 49.0004 59.1875Z" fill="#0F5FC2"/>
<defs>
<linearGradient id="paint0_linear_1_26" x1="74.55" y1="2.14197e-06" x2="42" y2="84" gradientUnits="userSpaceOnUse">
<stop stop-color="#CAF1FF"/>
<stop offset="1" stop-color="#CDF4FF"/>
</linearGradient>
</defs>
</svg>
