<svg width="46" height="35" viewBox="0 0 46 35" fill="none" xmlns="http://www.w3.org/2000/svg">
<path d="M45.4817 26.9783C45.4817 25.5967 45.0789 24.245 44.3226 23.0888C43.5663 21.9325 42.4892 21.0219 41.2233 20.4683C41.4014 19.8064 41.4916 19.1238 41.4917 18.4383C41.4917 17.3899 41.2848 16.3519 40.8829 15.3836C40.481 14.4153 39.892 13.5358 39.1496 12.7956C38.4072 12.0554 37.526 11.4689 36.5565 11.0698C35.5871 10.6708 34.5484 10.4669 33.5 10.47C32.4671 10.4666 31.4439 10.6689 30.49 11.065C29.9821 8.13841 28.3959 5.50839 26.0444 3.69365C23.6929 1.8789 20.7467 1.01118 17.787 1.26161C14.8272 1.51204 12.0687 2.86245 10.0555 5.04649C8.04237 7.23054 6.92067 10.0897 6.91167 13.06C6.91167 13.34 6.91167 13.6083 6.91167 13.8767C4.65526 14.807 2.79341 16.4943 1.64619 18.6485C0.498964 20.8028 0.138038 23.2894 0.625453 25.6809C1.11287 28.0724 2.41817 30.2194 4.31698 31.7528C6.21579 33.2863 8.58948 34.1103 11.03 34.0833H38.4117C40.29 34.0741 42.0882 33.3214 43.4131 31.99C44.7379 30.6585 45.4817 28.8566 45.4817 26.9783V26.9783Z" stroke="#45413C" stroke-width="0.5" stroke-linecap="round" stroke-linejoin="round"/>
</svg>
