<svg width="36" height="5" viewBox="0 0 36 5" fill="none" xmlns="http://www.w3.org/2000/svg">
<path opacity="0.15" d="M0.931671 2.27167C0.931671 2.5643 1.37316 2.85406 2.23092 3.12442C3.08868 3.39477 4.34593 3.64042 5.93087 3.84734C7.51581 4.05426 9.39741 4.2184 11.4682 4.33038C13.5391 4.44236 15.7586 4.5 18 4.5C20.2414 4.5 22.4609 4.44236 24.5318 4.33038C26.6026 4.2184 28.4842 4.05426 30.0691 3.84734C31.6541 3.64042 32.9113 3.39477 33.7691 3.12442C34.6269 2.85406 35.0683 2.5643 35.0683 2.27167C35.0683 1.97904 34.6269 1.68927 33.7691 1.41892C32.9113 1.14857 31.6541 0.902918 30.0691 0.695998C28.4842 0.489078 26.6026 0.32494 24.5318 0.212956C22.4609 0.100972 20.2414 0.043335 18 0.043335C15.7586 0.043335 13.5391 0.100972 11.4682 0.212956C9.39741 0.32494 7.51581 0.489078 5.93087 0.695998C4.34593 0.902918 3.08868 1.14857 2.23092 1.41892C1.37316 1.68927 0.931671 1.97904 0.931671 2.27167V2.27167Z" fill="#45413C"/>
</svg>
