<svg width="46" height="34" viewBox="0 0 46 34" fill="none" xmlns="http://www.w3.org/2000/svg">
<path d="M45.4817 25.9783C45.4817 24.5967 45.0789 23.245 44.3226 22.0888C43.5663 20.9325 42.4892 20.0219 41.2233 19.4683C41.4014 18.8064 41.4916 18.1238 41.4917 17.4383C41.4917 16.3899 41.2848 15.3519 40.8829 14.3836C40.481 13.4153 39.892 12.5358 39.1496 11.7956C38.4072 11.0554 37.526 10.4689 36.5565 10.0698C35.5871 9.67077 34.5484 9.46693 33.5 9.47C32.4671 9.4666 31.4439 9.66887 30.49 10.065C29.9821 7.13841 28.3959 4.50839 26.0444 2.69365C23.6929 0.878905 20.7467 0.0111787 17.787 0.261609C14.8272 0.512039 12.0687 1.86245 10.0555 4.04649C8.04237 6.23054 6.92067 9.08967 6.91167 12.06C6.91167 12.34 6.91167 12.6083 6.91167 12.8767C4.65526 13.807 2.79341 15.4943 1.64619 17.6485C0.498964 19.8028 0.138038 22.2894 0.625453 24.6809C1.11287 27.0724 2.41817 29.2194 4.31698 30.7528C6.21579 32.2863 8.58948 33.1103 11.03 33.0833H38.4117C40.29 33.0741 42.0882 32.3214 43.4131 30.99C44.7379 29.6585 45.4817 27.8566 45.4817 25.9783V25.9783Z" fill="white"/>
</svg>
