<svg width="46" height="14" viewBox="0 0 46 14" fill="none" xmlns="http://www.w3.org/2000/svg">
<path d="M38.4117 8.07835H11.03C8.67832 8.07722 6.39511 7.28667 4.54624 5.83339C2.69737 4.3801 1.38989 2.34822 0.833328 0.0633545C0.450854 1.61042 0.42555 3.22425 0.759333 4.78255C1.09312 6.34084 1.77723 7.80272 2.75983 9.05739C3.74243 10.3121 4.99773 11.3266 6.43061 12.0241C7.86349 12.7217 9.43635 13.0839 11.03 13.0834H38.4117C39.5582 13.0781 40.6864 12.7955 41.7 12.2596C42.7136 11.7237 43.5824 10.9505 44.2323 10.006C44.8823 9.06151 45.294 7.97374 45.4323 6.83559C45.5706 5.69743 45.4314 4.54272 45.0267 3.47002C44.5194 4.81698 43.6156 5.97847 42.4346 6.80121C41.2536 7.62394 39.8509 8.06925 38.4117 8.07835Z" fill="#F0F0F0"/>
</svg>
